<svg version="1.1" id="Calque_2" xmlns="http://www.w3.org/2000/svg" x="0" y="0" viewBox="0 0 300 185.7" xml:space="preserve"><style>.st3{fill:#263238}</style><linearGradient id="XMLID_148_" gradientUnits="userSpaceOnUse" x1="135.364" y1="36.978" x2="143.837" y2="36.978"><stop offset="0" stop-color="#fceea6"/><stop offset=".974" stop-color="#c28cff"/></linearGradient><path id="XMLID_24_" d="M142.6 47.5c.6-.8 3.1-6 3.3-13.6s.2-7.5.2-7.5l-13.2 21.1h9.7z" fill="url(#XMLID_148_)"/><g id="XMLID_13_"><linearGradient id="XMLID_150_" gradientUnits="userSpaceOnUse" x1="121.366" y1="73.388" x2="132.875" y2="82.733"><stop offset="0" stop-color="#fceea6"/><stop offset=".974" stop-color="#c28cff"/></linearGradient><path id="XMLID_149_" d="M125.6 89.8c4.7-2.6 8-7.5 8.9-12.8.3-1.7.3-3.5-.3-5.1-.6-1.6-1.8-3-3.4-3.6-.3-.1-.6-.1-.8-.1-.3.1-5.4 1.2-5.6 1.5-3.5 6.1 4 13.4.9 19.6" fill="url(#XMLID_150_)"/></g><g id="XMLID_22_"><linearGradient id="XMLID_155_" gradientUnits="userSpaceOnUse" x1="219.332" y1="104.074" x2="278.444" y2="152.069"><stop offset="0" stop-color="#fceea6"/><stop offset=".974" stop-color="#c28cff"/></linearGradient><path id="XMLID_57_" d="M245 68c3.3 9.8 7 21.6 6.5 31.9 11.7 4.9 25.2-4 37.6-1.2 4 .9 7.1 7.3 6 11.3-.6 2.1-5.3 4.2-7.5 4.7-2.1.4-11.4 1.9-13.6 1.6-10.5-1.8-10.3-3.2-20.7-5-1.2-.2-3.8.7-3.9 1.9 0 .5-2.5-1.9-2.2-1.4 7.2 9.1 20.3 13.3 25.8 23.5 1.1 2.1 4.5 11.4 4.3 13.7-.2 2.4-6.1 1.5-8.4 2.2-2.1.7-3.9-2.6-5.8-3.8-3.1-2-10.4-6.1-12.7-9-4.5-5.9-15.8-10.8-11.6-14 2.4 1-15.2 6.7-23 8.2-28.3 5.2-54.3 9.2-82.9 5.7 5.6-1.3 12.5-2.7 18.2-2.5 4.8.1 17.5-2.2 22.1-3.3 12.3-3.1 16.4-5.6 27.8-11.2S222.9 108 230.6 98c5-6.4 8.8-14.3 8.2-22.4-.3-3.2-1.1-6.7.6-9.5.7-1.1 1.8-2 2.9-2.8 4-2.9 7.2-7.9 11-11.1 3.7-3.3 12.3-28.8 8.8-9.9-3.9 8-8.7 15.6-14.2 22.6-2.1 2.5-2.6-.4-2.9 3.1" fill="url(#XMLID_155_)"/></g><g id="XMLID_5_"><g id="XMLID_132_"><path id="XMLID_136_" class="st3" d="M116.1 48c.1 0 .1.1.2.1.4.3 1.1.3 1.5 0 .1 0 .1-.1.2-.1.7-.5.9-1.3.5-2.1-1.5-3-5.2-5.6-7.4-8.2-3.2-3.8-6-7.9-8.6-12.1-.8-1.2-2.8-.8-2.8.8.2 8.1 1.1 16.1 2.1 24.2.2 1.9 3.2 1.9 3 0-1-8-2-16.1-2.1-24.2-.9.3-1.9.5-2.8.8 2.1 3.5 4.4 6.9 6.9 10.1 1.4 1.8 2.8 3.5 4.3 5.2 1.4 1.5 3.8 3.2 4.7 5 .2-.7.4-1.4.5-2.1h1.2c-1.4-1.1-2.9 1.5-1.4 2.6z"/></g></g><g id="XMLID_6_"><g id="XMLID_126_"><path id="XMLID_130_" class="st3" d="M114.8 74.9c.3-1.8.6-3.7-.2-5.4-.7-1.3-1.9-2.3-3.4-2.3s-2.9.9-3.8 2.1c-1 1.5-1.1 3.5-1 5.2.1 1.9 3.1 1.9 3 0 0-1.1-.2-4.2 1.5-4.3 1.7-.1 1.2 3.1 1 3.9-.4 1.9 2.5 2.7 2.9.8z"/></g></g><g id="XMLID_7_"><g id="XMLID_120_"><path id="XMLID_124_" class="st3" d="M101.8 73.3c.1-1.7.2-3.5-.7-5-.8-1.4-2.2-2.4-3.8-2.4-1.5 0-2.8 1.1-3.4 2.4-.7 1.6-.5 3.4-.1 5 .4 1.9 3.3 1.1 2.9-.8-.2-.8-.8-4 .9-3.6 1.7.3 1.3 3.2 1.2 4.3-.1 2 2.9 2 3 .1z"/></g></g><g id="XMLID_8_"><g id="XMLID_114_"><path id="XMLID_118_" class="st3" d="M138.4 67.7c-2.7 13.2-12.6 21.1-24.9 25.1-10.9 3.5-22.6 5.7-33.8 8-11.3 2.3-25.9 4-35.8-3.4-3.8-2.8-6.7-7.3-9.8-10.8L32.3 89C55.4 100.8 74.6 78 90 64c5-4.5 10.4-8.7 16.6-11.4 6-2.6 12.7-3.1 18.6-6.1 10-5 16-15.2 21.3-24.5-.9-.1-1.8-.2-2.7-.4 2 8.4 1.6 16.7-1.2 24.9-.3.8.3 1.6 1 1.8 14.6 4.3 29.4 8 44.3 11.1 12.7 2.6 27.6 7.1 40.6 4.4 24.6-5 31.8-32.8 33.1-54.2-1 .1-2 .3-2.9.4 8.1 19.7 2.1 43.1-14.5 56.4-1.5 1.2.6 3.3 2.1 2.1 17.3-13.9 23.7-38.8 15.3-59.3-.6-1.5-2.8-1.4-2.9.4-1.4 22.4-10.1 52-37.7 51.9-12.6-.1-25.7-3.6-38-6.2-13-2.8-25.9-6.1-38.6-9.9.3.6.7 1.2 1 1.8 2.9-8.7 3.3-17.6 1.2-26.5-.3-1.3-2.1-1.5-2.7-.4C138.3 30 132 40.8 121 44.9c-5.1 1.9-10.5 2.6-15.5 4.7-4.5 2-8.6 4.7-12.5 7.7-16.2 13-35.3 41.3-59.4 29.1-1.5-.8-2.9 1.1-1.8 2.4 3.8 4.4 7.3 9.6 12.4 12.5 11.1 6.1 24.2 4.9 36.1 2.5 12.9-2.6 26.8-4.8 39-9.9 11.2-4.7 19.4-13.3 21.9-25.3.4-2-2.4-2.8-2.8-.9z"/></g></g><g id="XMLID_40_"><g id="XMLID_108_"><path id="XMLID_112_" class="st3" d="M114.6 95.3c13.6 6.6 27.3 13.1 40.9 19.7 1.7.8 3.3-1.8 1.5-2.6-13.6-6.6-27.3-13.1-40.9-19.7-1.7-.8-3.2 1.8-1.5 2.6z"/></g></g><g id="XMLID_10_"><g id="XMLID_102_"><path id="XMLID_106_" class="st3" d="M58.6 68.4l16.8 8.1c1.7.8 3.3-1.8 1.5-2.6l-16.8-8.1c-1.7-.8-3.2 1.8-1.5 2.6z"/></g></g><g id="XMLID_12_"><g id="XMLID_96_"><path id="XMLID_100_" class="st3" d="M146.6 111.2c-2.1 2.8-4.1 5.6-6.2 8.4-1.1 1.6 1.5 3.1 2.6 1.5 2.1-2.8 4.1-5.6 6.2-8.4 1.2-1.5-1.4-3-2.6-1.5z"/></g></g><g id="XMLID_19_"><g id="XMLID_90_"><path id="XMLID_94_" class="st3" d="M136.6 106.3c-1.7 2.8-3.7 5.3-6 7.5-1.4 1.4.7 3.5 2.1 2.1 2.5-2.5 4.6-5.2 6.5-8.2 1-1.6-1.6-3.1-2.6-1.4z"/></g></g><g id="XMLID_3_"><g id="XMLID_84_"><path id="XMLID_88_" class="st3" d="M28.4 85.8c.8 2.2 3.4 2.3 4.6.4 1.5-2.2 1.5-5.9.4-8.3-1-2.2-3.5-4-5.8-2.4-2.2 1.6-2.1 5.1-1.8 7.6.3 2.2 1.2 6 4.2 5.5 2.8-.4 4-4 3.9-6.4-.1-2.4-1.2-5.3-3.9-5.6-3-.4-4 3.6-3.8 5.9.2 2.4 2.7 4.7 5.1 3.5 3.1-1.5 1.4-5.1-.3-6.9-.6-.6-1.5-.5-2.1 0-2.2 1.7-1.2 5 1.2 5.9.6.2 1.4-.1 1.7-.7.7-1.6.9-4.1-1.3-4.5-2.6-.4-3.2 2.6-2.5 4.4.2.6.7 1.1 1.4 1.1 1.4 0 2.2-1.1 1.9-2.5-.5-1.9-3.4-1.1-2.9.8 0 .1.1.2.1.3.1-.5.3-1 .4-1.5-.1.1-.1.2-.2.3.4-.1.7-.3 1.1-.4h-.3c.5.4 1 .7 1.4 1.1-.2-.3-.3-.7-.1-1-.4.1-.7.3-1.1.4-.2 0-.4 0-.5-.1.6-.2 1.1-.5 1.7-.7-.3-.4-.3-.7.1-.9h-2.1c.3.3.8.7.9 1.1-.1.2-.3.4-.4.6-.1-.6-.1-1.1-.2-1.7 0-.2.3-1.5.4-1.5.5-.2.9.7 1 1.1.4 1 .3 2.3-.1 3.3-.1.3-.6 1.3-1.1 1.2-.3-.1-.5-1.6-.6-1.8-.2-.9-.8-7 1.4-5.1.7.6.7 2.3.7 3.1 0 .6-.1 1.1-.2 1.7 0 .2-.1.4-.2.7-.2.4-.1.8.5 1.1-.4-1.7-3.3-1-2.6.9z"/></g></g><g id="XMLID_4_"><g id="XMLID_78_"><path id="XMLID_82_" class="st3" d="M243.7 68.8c2.8 5.5 4.8 11.3 5.7 17.4.5 3 .6 6 .6 9 0 1.7-.4 3.5 0 5.2.2.7.8 1.1 1.4 1.1 7.8.5 15.6.4 23.3-.5 3.3-.4 6.7-1.2 10-1.2 6.1 0 11.5 4.9 7 10.8-5.1 6.7-15.1 5-22.1 3.1-6.4-1.8-12.7-3.6-19.3-4.3-.7-.1-1.2.5-1.4 1.1-1 2.5-1.1 3.6.6 5.9 2.5 3.4 6.4 6 9.9 8.3 3.8 2.6 7.7 5 10.9 8.2 2.9 2.9 10.7 15.7 3.4 17.4-5.4 1.3-13-4.5-16.6-7.6-3.5-3.1-7-6.6-9.9-10.3-2.1-2.7-3.9-6.8-7.8-7.5-4-.7-8.9 2.9-12.5 4.1-6 2-12.2 3.2-18.4 4.1-13.2 1.9-26.7 2.8-40 3.3-6.6.2-13.1.3-19.7.3-5.2 0-12-1.4-17.1.1-4.1 1.3-6.5 5.8-8.9 9-3.9 5.1-7.7 10.1-11.6 15.2-4 5.2-8.8 11.9-15.6 13.3-9.6 1.9 0-11.5 2.1-13.9 6.6-7.2 15-12.8 19.6-21.7.6-1.2-.8-3-2.1-2.1-11.2 8.2-24 14.9-37.6 18-1.1.3-2.2.5-3.3.6-.7-1.7-1.4-3.3-2.1-5 .3-1.5 3.6-3.7 4.9-4.7 2.5-1.9 5.3-3.4 8.2-4.8 6.2-2.9 12.8-4.6 19.4-6.4 1.2-.3 1.5-2.1.4-2.7-9.7-5.5-18.2-12.4-25.6-20.8-.5.8-1 1.7-1.5 2.5 8.6 2.3 17.3.9 25.7-1.5 8.2-2.3 16.6-4.8 24-9.2 11.8-7 20.7-21.1 14.4-34.7-.8-1.8-3.4-.2-2.6 1.5 6.4 14.1-5.6 27.2-17.6 32.9-6 2.9-12.6 4.8-19 6.6-8 2.2-16 3.7-24.1 1.5-1.5-.4-2.4 1.4-1.5 2.5 7.5 8.5 16.3 15.7 26.2 21.3.1-.9.2-1.8.4-2.7-8.8 2.3-17.9 4.8-25.7 9.7-4 2.6-13.4 9.2-8.9 15 4.1 5.3 16-.6 20.6-2.4 9.6-3.6 18.5-8.6 26.8-14.7l-2.1-2.1c-4.9 9.5-14.2 15-20.8 23.1-2.9 3.6-10.8 15.3-2.5 17.2 9.3 2 17-7.8 21.8-14.1 4.1-5.3 8.1-10.6 12.1-15.9 1.3-1.8 2.6-3.8 4.1-5.4 2.2-2.3 4.4-2.4 7.4-2.5 3.9-.1 7.9.2 11.8.3 14.5.1 28.9-.4 43.3-1.7 13.4-1.2 27.2-2.5 39.8-7.5 3-1.2 6.1-3.8 9.3-1 1.5 1.3 2.6 3.6 3.9 5.2 3.7 4.6 8 9 12.7 12.6 4.5 3.5 9.3 5.5 14.9 6.1 4.1.5 6.3-2.8 6.7-6.7.5-4.7-2.1-9.9-5-13.5-3.2-4.1-7.6-6.9-11.8-9.8-2.5-1.7-5.1-3.3-7.3-5.3-2.3-1.9-4.7-3.6-3.5-6.7-.5.4-1 .7-1.4 1.1 10 1 19.6 6.1 29.8 6 6.8-.1 14.8-3.2 16.3-10.6 1.4-6.7-4.7-10.8-10.7-11-5.2-.1-10.5 1.3-15.7 1.7-6.2.5-12.3.4-18.5.1.5.4 1 .7 1.4 1.1-.5-2.3.2-5.4.1-7.8-.1-2.7-.4-5.4-.9-8-1.1-5.8-3.1-11.2-5.7-16.4-.7-2.1-3.3-.5-2.5 1.2z"/></g></g><g id="XMLID_17_"><g id="XMLID_72_"><path id="XMLID_76_" class="st3" d="M129.2 87.3c4.5-4.2 7.2-16.1.2-19.5-3.3-1.6-6.7.1-7.4 3.7-1 5.7 1.9 11.5 1.1 17.4-.2 1.4 1.3 2.6 2.5 1.5 4.1-3.9 5.4-9.6 3.4-14.9-.7-1.8-3.6-1-2.9.8 1.6 4.3.7 8.8-2.7 12 .8.5 1.7 1 2.5 1.5.4-2.4.4-4.7.1-7.1-.3-2.8-1.5-6-1.1-8.8.6-4.4 3.8-4.3 5.2-.4.4 1.2.4 2.5.4 3.8-.1 3.1-1.1 5.9-3.4 8-1.4 1.2.7 3.3 2.1 2z"/></g></g><g id="XMLID_28_"><g id="XMLID_66_"><path id="XMLID_70_" class="st3" d="M88.2 102c.3 1 .5 1.9.6 2.9 0 .3-.1 1.3.1 1.6v.2c1 .1 1.2 0 .6-.4-.5-.7-1.1-1.2-1.6-1.9-.5-.8-.9-1.7-1.2-2.6-.6-1.8-3.5-1-2.9.8.5 1.6 1.2 3 2.2 4.3.9 1.1 2.1 2.7 3.7 2.6 3.5-.3 2-6.3 1.4-8.3-.6-1.9-3.5-1.1-2.9.8z"/></g></g><g id="XMLID_41_"><g id="XMLID_60_"><path id="XMLID_64_" class="st3" d="M64.7 105.9c.1.8.1 1.6-.1 2.4-.1.3-.4.8-.4 1.2-.4.5-.1.6.7.3-.1-.1-.2-.3-.4-.4-1-1.2-1.6-2.7-1.8-4.2-.4-1.9-3.2-1.1-2.9.8.3 1.5.8 2.9 1.6 4.2.7 1.1 1.7 2.6 3.1 2.6 1.5 0 2.3-1.6 2.7-2.9.5-1.5.6-3.1.3-4.7-.1-.8-1.1-1.2-1.8-1-.8.1-1.1.9-1 1.7z"/></g></g><g id="XMLID_23_"><g id="XMLID_58_"><path id="XMLID_83_" class="st3" d="M63.6 69.1c3.6-4.5 6.6-11.5 2.5-16.7-5.2-6.4-15 5.6-17.7 9.5-2.8 4.1-7.6 14.1.1 16.1 6.4 1.7 11.6-3.8 14.8-8.5 1.1-1.6-1.5-3.1-2.6-1.5-2.1 3.2-6 8.2-10.6 7.3-5.4-1.1-1.3-8.4.5-11.2 2.1-3.2 10.4-13.8 14-8 2 3.1-1.1 8.4-3.1 10.9-1.2 1.5.9 3.6 2.1 2.1z"/></g></g><g id="XMLID_29_"><g id="XMLID_95_"><path id="XMLID_119_" class="st3" d="M51.9 60.1c-.9-1.3-2.1-2.4-3.5-3.2-.6-.3-1.3-.2-1.8.2-.4.4-.6 1.3-.2 1.8.8 1.1 1.8 1.9 3 2.3.8.3 1.6-.3 1.8-1 .2-.8-.3-1.6-1-1.8-.4-.2-1-.6-1.2-1l-2.1 2.1c1 .5 1.8 1.2 2.4 2.1.5.7 1.3 1 2.1.5.6-.3 1-1.3.5-2z"/></g></g><g id="XMLID_30_"><g id="XMLID_125_"><path id="XMLID_140_" class="st3" d="M63.2 50.3c-.3 1.1-.9 2.1-1.7 3l2.4 1.8c.7-1.1 1.5-2.2 2.2-3.4 1.1-1.6-1.5-3.1-2.6-1.5-.7 1.1-1.5 2.2-2.2 3.4-.9 1.4 1.2 3.1 2.4 1.8s2-2.7 2.5-4.3c.5-1.8-2.4-2.6-3-.8z"/></g></g><g id="XMLID_31_"><g id="XMLID_141_"><path id="XMLID_146_" class="st3" d="M48.4 76.5c.4-.3.8-.6 1.2-.8l-2.1-2.1c-.9 1.5-1.8 3-2.8 4.5-.9 1.2.9 2.9 2.1 2.1 1.1-.8 1.5-1.8 1.2-3.1-.4-1.9-3.3-1.1-2.9.8 0-.1 0-.2.1-.3l2.1 2.1c1-1.4 2-2.9 2.8-4.5.7-1.2-.8-2.9-2.1-2.1-.4.3-.8.6-1.2.8-1.5 1 0 3.6 1.6 2.6z"/></g></g><g id="XMLID_32_"><g id="XMLID_147_"><path id="XMLID_154_" class="st3" d="M142 119.7c-.9-.7-1.7-1.4-2.6-2 .1.6.2 1.2.2 1.8 1-2 3.3-2.7 4-4.9.6-1.9 0-4-1.6-5.2-1.5-1.1-3.5-1.2-5-.1-1 .7-4.2 4.4-3.9 5.4-.7-1.8-3.6-1-2.9.8.5 1.4 1.6 2.2 3.2 1.9 1.6-.3 2.5-1.9 3.4-3.1.6-.8 1.1-2 2-2.5 1.3-.7 2.4.6 1.9 1.9-.5 1.7-2.9 2.5-3.7 4.2-.3.5-.3 1.4.2 1.8.9.7 1.7 1.4 2.6 2 1.6 1.3 3.7-.8 2.2-2z"/></g></g><g id="XMLID_1_"><linearGradient id="XMLID_156_" gradientUnits="userSpaceOnUse" x1="71.704" y1="27.015" x2="76.387" y2="27.015"><stop offset="0" stop-color="#fceea6"/><stop offset=".974" stop-color="#c28cff"/></linearGradient><path id="XMLID_33_" d="M72.5 21.1c-.6 3.5-1.5 7-2.8 10.3-1.3 3.6 4.4 5.2 5.8 1.6 1.2-3.4 2.2-6.8 2.8-10.3.6-3.7-5.2-5.4-5.8-1.6z" fill="url(#XMLID_156_)"/></g><g id="XMLID_2_"><linearGradient id="XMLID_157_" gradientUnits="userSpaceOnUse" x1="41.698" y1="27.369" x2="49.122" y2="27.369"><stop offset="0" stop-color="#fceea6"/><stop offset=".974" stop-color="#c28cff"/></linearGradient><path id="XMLID_27_" d="M39.8 22.8c.9 2.5 1.9 5 3.1 7.4 1 1.9 2 4.7 4.3 5.4 1.3.4 2.7-.3 3.4-1.4.5-.7.7-1.8.3-2.6-.4-1.1-1.5-2.3-2.9-2.2h-.1c-1.6.2-3 1.3-3 3 0 1.5 1.4 3.2 3 3h.1c-1-.7-1.9-1.5-2.9-2.2 0 .1 0 .1.1.2.1-.8.2-1.5.3-2.3l-.1.1c1.1-.5 2.3-.9 3.4-1.4 1 .7 1.2.6.5-.3-.3-.4-.5-.9-.7-1.3-.4-.7-.7-1.4-1-2-.8-1.6-1.4-3.3-2-4.9-1.3-3.8-7.1-2.2-5.8 1.5z" fill="url(#XMLID_157_)"/></g><g id="XMLID_9_"><linearGradient id="XMLID_158_" gradientUnits="userSpaceOnUse" x1="20.281" y1="41.539" x2="31.799" y2="41.539"><stop offset="0" stop-color="#fceea6"/><stop offset=".974" stop-color="#c28cff"/></linearGradient><path id="XMLID_26_" d="M32.5 41.5c-3.4-1.7-6.8-3.5-10.3-5.2-3.4-1.7-6.5 3.4-3 5.2 3.4 1.7 6.8 3.5 10.3 5.2 3.4 1.8 6.5-3.4 3-5.2z" fill="url(#XMLID_158_)"/></g><g id="XMLID_11_"><linearGradient id="XMLID_159_" gradientUnits="userSpaceOnUse" x1="4.755" y1="64.919" x2="17.071" y2="64.919"><stop offset="0" stop-color="#fceea6"/><stop offset=".974" stop-color="#c28cff"/></linearGradient><path id="XMLID_25_" d="M17 62.3c-4-.1-8.1-.3-12.1-.8-3.8-.4-3.8 5.6 0 6 4 .5 8.1.7 12.1.8 3.9.1 3.9-5.9 0-6z" fill="url(#XMLID_159_)"/></g></svg>